.
..............................Site Info...........................

 -   http://www.scenetime.com  *_*   

SceneTime is going to Close sign up on march/1, hurry up! get in before the doors are closed.

     We care to share . Join us on  http://www.scenetime.com 

    Be the first to get new release at  http://www.scenetime.com

        Seed back for speed


...................................NFO:.................................................








































          
          
              
              
                    
                    
                    
                    

Cormans.World.2011.DVDRiP.AC3-5.1.XviD-SiC

Poster:
[img]http://img215.imageshack.us/img215/1696/mv5bmtg0mzgzmje3nv5bml5.jpg[/img]

IMDB Link:
http://www.imdb.com/title/tt1185371/

Description:
A documentary on DIY producer/director Roger Corman and his alternative approach to making movies in Hollywood.   

MediaInfo:
General
Complete name                            : Cormans.World.2011.DVDRiP.AC3-5.1.XviD-SiC.avi
Format                                   : AVI
Format/Info                              : Audio Video Interleave
File size                                : 1.37 GiB
Duration                                 : 1h 30mn
Overall bit rate                         : 2 177 Kbps
Writing library                          : VirtualDub build 32839/release

Video
ID                                       : 0
Format                                   : MPEG-4 Visual
Format profile                           : Advanced Simple@L5
Format settings, BVOP                    : 1
Format settings, QPel                    : No
Format settings, GMC                     : No warppoints
Format settings, Matrix                  : Default (H.263)
Codec ID                                 : XVID
Codec ID/Hint                            : XviD
Duration                                 : 1h 30mn
Bit rate                                 : 1 784 Kbps
Width                                    : 720 pixels
Height                                   : 400 pixels
Display aspect ratio                     : 16:9
Frame rate                               : 23.976 fps
Color space                              : YUV
Chroma subsampling                       : 4:2:0
Bit depth                                : 8 bits
Scan type                                : Progressive
Compression mode                         : Lossy
Bits/(Pixel*Frame)                       : 0.258
Stream size                              : 1.12 GiB (82%)
Writing library                          : XviD 1.2.1 (UTC 2008-12-04)

Audio
ID                                       : 1
Format                                   : AC-3
Format/Info                              : Audio Coding 3
Mode extension                           : CM (complete main)
Codec ID                                 : 2000
Duration                                 : 1h 30mn
Bit rate mode                            : Constant
Bit rate                                 : 384 Kbps
Channel(s)                               : 6 channels
Channel positions                        : Front: L C R, Side: L R, LFE
Sampling rate                            : 48.0 KHz
Bit depth                                : 16 bits
Compression mode                         : Lossy
Delay relative to video                  : 800ms
Stream size                              : 247 MiB (18%)
Alignment                                : Split accross interleaves
Interleave, duration                     : 42 ms (1.00 video frame)
Interleave, preload duration             : 500 ms


Screenshots:
[img]http://img269.imageshack.us/img269/6240/snap1rt.png[/img]
[img]http://img825.imageshack.us/img825/4985/snap2r.png[/img]
[img]http://img827.imageshack.us/img827/9437/snap3h.png[/img]
[img]http://img402.imageshack.us/img402/1638/snap4e.png[/img]
[img]http://img38.imageshack.us/img38/3862/snap5jq.png[/img]


Note : Did the usual thing, turned out nice.      

Source: our own

Enjoy!

Respects to T00NG0D, ELEKTRI4KA, PA, YeFsTe, MrRep and everyone in the struggle...RiP MU, BTJ, LNU and B'TIK